<?xml version="1.0" encoding="UTF-8"?>
<svg version="1.1" xmlns="http://www.w3.org/2000/svg" width="1024" height="1024">
<path d="M0 0 C8.75384795 4.4567463 13.18722013 11.20924186 16.5703125 20.30859375 C18.75015138 28.48911268 17.32053011 36.46333503 13.16015625 43.79296875 C7.74975712 51.41613159 -0.16674554 56.68351621 -9.4296875 58.30859375 C-18.17726269 59.32542972 -24.59969021 57.13477044 -32.4296875 53.30859375 C-32.4296875 52.64859375 -32.4296875 51.98859375 -32.4296875 51.30859375 C-33.30625 51.8190625 -34.1828125 52.32953125 -35.0859375 52.85546875 C-65.89549006 70.60047413 -98.47926481 84.63707407 -132.3046875 95.49609375 C-133.91138306 96.01502197 -133.91138306 96.01502197 -135.55053711 96.54443359 C-139.92100798 97.94105227 -144.26181982 99.31985252 -148.734375 100.3515625 C-154.69976722 101.61986443 -154.69976722 101.61986443 -159.0625 105.5234375 C-160.33447588 108.10347366 -160.33447588 108.10347366 -161.34765625 110.77734375 C-164.30501158 117.69563347 -170.48603754 121.34064392 -177.08203125 124.375 C-179.91577637 125.50189698 -182.3821286 126.10983991 -185.4296875 126.30859375 C-187.255 126.46328125 -187.255 126.46328125 -189.1171875 126.62109375 C-194.88598782 126.5220113 -201.91354186 124.75725795 -206.11376953 120.66967773 C-208.53330668 118.49137687 -210.32197337 117.3459449 -213.4296875 116.30859375 C-219.04579494 116.78896696 -224.26215191 118.243456 -229.66210938 119.81600952 C-233.46424286 120.92204432 -237.28798091 121.94119612 -241.11303711 122.96461487 C-243.18523891 123.51907237 -245.25634419 124.07764179 -247.32641602 124.63999939 C-259.66407898 127.97001141 -272.1145742 130.80299248 -284.57617188 133.62313843 C-288.39872811 134.48908037 -292.21898581 135.36464762 -296.0390625 136.24145508 C-298.39830715 136.77873028 -300.75767622 137.31545945 -303.1171875 137.8515625 C-304.20378662 138.10106659 -305.29038574 138.35057068 -306.40991211 138.6076355 C-307.91050171 138.94530441 -307.91050171 138.94530441 -309.44140625 139.28979492 C-310.31240967 139.48756027 -311.18341309 139.68532562 -312.08081055 139.88908386 C-314.4296875 140.30859375 -314.4296875 140.30859375 -318.4296875 140.30859375 C-318.54441406 141.03304687 -318.65914063 141.7575 -318.77734375 142.50390625 C-320.69647856 150.75503674 -325.84598822 156.45986282 -332.85546875 160.90234375 C-341.62868969 165.69499859 -349.99704593 166.70063388 -359.6796875 164.05859375 C-364.14607238 162.58152159 -368.05926486 160.67901639 -371.4296875 157.30859375 C-379.47347007 157.6854196 -386.96704345 160.51043302 -394.56640625 162.97265625 C-396.05147538 163.44828356 -397.53673423 163.92331883 -399.02217102 164.39779663 C-402.93040547 165.6480804 -406.8358056 166.90700259 -410.74072266 168.16760254 C-413.86982659 169.17618725 -417.00086189 170.1786885 -420.13203239 171.18083572 C-441.90496361 178.14898938 -441.90496361 178.14898938 -463.58537292 185.39883423 C-469.22012562 187.30859375 -469.22012562 187.30859375 -471.4296875 187.30859375 C-471.57664062 188.00984375 -471.72359375 188.71109375 -471.875 189.43359375 C-474.3316786 199.82506187 -479.588934 207.22479997 -488.4296875 213.30859375 C-497.27908877 218.13165971 -507.73611135 219.07232525 -517.46875 216.5078125 C-520.85334555 215.21487703 -523.66580678 213.95131738 -526.44921875 211.609375 C-528.28969246 210.09075371 -528.28969246 210.09075371 -530.21801758 210.54956055 C-532.93611632 211.48239739 -535.28748069 212.74946421 -537.796875 214.15234375 C-538.84029053 214.7345166 -539.88370605 215.31668945 -540.95874023 215.91650391 C-542.06290283 216.54089355 -543.16706543 217.1652832 -544.3046875 217.80859375 C-545.437854 218.44716309 -546.57102051 219.08573242 -547.73852539 219.74365234 C-555.21607787 223.98545224 -562.54970857 228.33969955 -569.68505859 233.13964844 C-571.65980841 234.46278055 -573.64772247 235.76479352 -575.63671875 237.06640625 C-600.42619657 253.35124844 -623.84197217 271.16555741 -645.36889648 291.58911133 C-647.95044869 294.03283939 -650.48378972 296.35040336 -653.30078125 298.52734375 C-655.68760837 300.20790906 -655.68760837 300.20790906 -656.4296875 303.30859375 C-657.0896875 303.30859375 -657.7496875 303.30859375 -658.4296875 303.30859375 C-658.4296875 303.96859375 -658.4296875 304.62859375 -658.4296875 305.30859375 C-659.0896875 305.30859375 -659.7496875 305.30859375 -660.4296875 305.30859375 C-659.82641756 302.3367041 -658.92723484 300.25925455 -657.20703125 297.76953125 C-656.52942749 296.78315674 -656.52942749 296.78315674 -655.83813477 295.77685547 C-655.35272217 295.0860791 -654.86730957 294.39530273 -654.3671875 293.68359375 C-653.86695068 292.96574707 -653.36671387 292.24790039 -652.85131836 291.50830078 C-648.92619297 285.92039186 -644.83085665 280.53195934 -640.4296875 275.30859375 C-640.01170898 274.80714844 -639.59373047 274.30570313 -639.16308594 273.7890625 C-628.10220253 260.53813999 -616.59677198 247.50889674 -603.4296875 236.30859375 C-602.50671875 235.49777344 -601.58375 234.68695312 -600.6328125 233.8515625 C-586.48807833 221.52190116 -571.25203441 210.38335661 -555.4296875 200.30859375 C-554.81383789 199.91494629 -554.19798828 199.52129883 -553.56347656 199.11572266 C-542.86695744 192.30859375 -542.86695744 192.30859375 -540.4296875 192.30859375 C-540.7596875 191.21546875 -541.0896875 190.12234375 -541.4296875 188.99609375 C-543.98062066 178.49660075 -542.54174353 169.07324552 -536.921875 159.828125 C-530.48387422 150.88978438 -521.31535759 145.20801874 -510.4296875 143.30859375 C-498.27921486 143.40278346 -487.94004139 147.6800405 -479.4296875 156.30859375 C-477.4921875 158.68359375 -477.4921875 158.68359375 -476.4296875 160.30859375 C-469.48575319 158.99164069 -463.06549898 156.81838762 -456.46875 154.33203125 C-453.4296875 153.30859375 -453.4296875 153.30859375 -450.4296875 153.30859375 C-450.0996875 152.64859375 -449.7696875 151.98859375 -449.4296875 151.30859375 C-447.09375 150.5625 -447.09375 150.5625 -444.0546875 149.87109375 C-442.97832031 149.61585938 -441.90195312 149.360625 -440.79296875 149.09765625 C-439.68308594 148.83726562 -438.57320312 148.576875 -437.4296875 148.30859375 C-435.36404653 147.80036053 -433.30123313 147.28042014 -431.2421875 146.74609375 C-430.34113281 146.51792969 -429.44007813 146.28976562 -428.51171875 146.0546875 C-426.24370382 145.51257054 -426.24370382 145.51257054 -425.4296875 143.30859375 C-423.43579893 142.83490751 -421.43776831 142.37620326 -419.42919922 141.96923828 C-415.78920407 141.16752683 -412.20836425 140.18640764 -408.62109375 139.1796875 C-407.92374115 138.98404205 -407.22638855 138.78839661 -406.50790405 138.58682251 C-405.06789242 138.18136565 -403.62816746 137.77488937 -402.1887207 137.36743164 C-399.97376724 136.74088317 -397.75748092 136.11922342 -395.54101562 135.49804688 C-394.13012741 135.10054753 -392.71931718 134.70277128 -391.30859375 134.3046875 C-390.64718887 134.11925888 -389.985784 133.93383026 -389.30433655 133.74278259 C-386.9149971 133.06420964 -384.65685311 132.42217656 -382.4296875 131.30859375 C-381.94599395 129.4917936 -381.54302624 127.65323658 -381.1796875 125.80859375 C-378.82311981 115.93680274 -373.99856561 109.64911698 -365.4296875 104.30859375 C-357.90064987 100.02737627 -350.16695905 99.09902653 -341.6875 100.88671875 C-333.18520602 103.5361588 -326.37238967 108.8945405 -321.4296875 116.30859375 C-309.68329955 113.88614989 -297.9821738 111.32495545 -286.31355667 108.55214691 C-283.82452156 107.96106019 -281.33466549 107.37354588 -278.84457397 106.78692627 C-271.78222787 105.12277253 -264.72092991 103.45423234 -257.66113281 101.77929688 C-253.30261576 100.74549857 -248.94285391 99.71710098 -244.58225632 98.69211578 C-242.93357211 98.30345063 -241.28537239 97.91272412 -239.63768387 97.51985931 C-237.34767519 96.97397471 -235.05614876 96.43496205 -232.76416016 95.89746094 C-232.09197952 95.73543182 -231.41979889 95.57340271 -230.72724915 95.40646362 C-227.22731718 94.59370199 -224.02355141 94.13378646 -220.4296875 94.30859375 C-220.40390625 93.67953125 -220.378125 93.05046875 -220.3515625 92.40234375 C-219.67232465 82.15202708 -215.77398263 75.4388175 -208.4296875 68.30859375 C-205.6171875 66.43359375 -205.6171875 66.43359375 -203.4296875 65.30859375 C-202.7696875 64.64859375 -202.1096875 63.98859375 -201.4296875 63.30859375 C-192.09042409 60.5426693 -183.45128577 60.54133294 -174.4296875 64.30859375 C-168.8916605 67.54319359 -164.04665451 71.9927483 -160.4296875 77.30859375 C-160.4296875 77.96859375 -160.4296875 78.62859375 -160.4296875 79.30859375 C-135.32956723 72.34199569 -110.51384919 65.32224217 -86.4296875 55.30859375 C-85.82789673 55.05982483 -85.22610596 54.81105591 -84.6060791 54.55474854 C-71.0054577 48.93232586 -57.42356678 43.24517592 -44.4296875 36.30859375 C-44.46449219 35.40238281 -44.49929688 34.49617188 -44.53515625 33.5625 C-44.80578532 21.38419194 -43.4964494 14.50886446 -34.98046875 5.546875 C-24.8334374 -3.35702847 -12.37145474 -5.09309177 0 0 Z " fill="#000" transform="translate(818.4296875,392.69140625)"/>
<path d="M0 0 C1.51689363 2.35576736 2.7556866 4.58181083 3.9765625 7.0859375 C4.52635269 8.17125008 4.52635269 8.17125008 5.08724976 9.27848816 C6.27914864 11.63786216 7.45180456 14.00627868 8.625 16.375 C9.44640281 18.00719177 10.2693242 19.63862018 11.09375 21.26928711 C12.70248691 24.45363001 14.30551141 27.6407268 15.90332031 30.83056641 C18.21443098 35.43702493 20.58281466 40.01083468 23 44.5625 C23.36262939 45.24860352 23.72525879 45.93470703 24.09887695 46.64160156 C25.39700809 49.09559543 26.69846318 51.5478106 28 54 C30.93883856 59.54095725 33.87593848 65.08283571 36.8125 70.625 C37.20332764 71.36244446 37.59415527 72.09988892 37.99682617 72.85968018 C44.10033859 84.37868762 50.14254171 95.92771634 56.14453125 107.5 C64.46915178 123.54852366 72.96663865 139.50722822 81.42982483 155.48295593 C82.16369909 156.86883642 82.89705111 158.25499359 83.62986755 159.64143372 C85.59483534 163.3572572 87.57104753 167.06658659 89.56201172 170.76855469 C89.97962265 171.54834686 90.39723358 172.32813904 90.82749939 173.13156128 C91.63319518 174.63558135 92.44212337 176.13787542 93.25465393 177.63821411 C96 182.77498023 96 182.77498023 96 185 C96.66 185 97.32 185 98 185 C98 185.66 98 186.32 98 187 C70.94 187.33 43.88 187.66 16 188 C4.54419392 166.23396844 4.54419392 166.23396844 0.625 157.875 C-0.28602305 155.94901279 -1.1974996 154.02324005 -2.109375 152.09765625 C-2.80643555 150.62256592 -2.80643555 150.62256592 -3.51757812 149.11767578 C-5.10563237 145.77784497 -6.71448848 142.44863611 -8.328125 139.12109375 C-8.87807129 137.98494629 -9.42801758 136.84879883 -9.99462891 135.67822266 C-11.06197911 133.474795 -12.13186924 131.27259546 -13.20458984 129.07177734 C-13.68621582 128.07484863 -14.1678418 127.07791992 -14.6640625 126.05078125 C-15.09154785 125.17075439 -15.5190332 124.29072754 -15.95947266 123.3840332 C-16.89037232 121.25117651 -17.52259816 119.27144505 -18 117 C-18.99773437 116.88011719 -19.99546875 116.76023437 -21.0234375 116.63671875 C-24.27274826 116.17195213 -27.34100271 115.37629483 -30.48950195 114.4387207 C-53.68995463 107.63534113 -78.91257726 104.40800396 -103 103 C-103.96218948 102.93965073 -103.96218948 102.93965073 -104.94381714 102.87808228 C-117.57102206 102.09201031 -130.16196988 101.79590067 -142.8125 101.8125 C-144.2168782 101.81390488 -144.2168782 101.81390488 -145.64962769 101.81533813 C-162.17323555 101.8508645 -178.54502283 102.38016213 -195 104 C-195.75418213 104.07305359 -196.50836426 104.14610718 -197.28540039 104.22137451 C-248.7051215 109.24317785 -299.65530515 120.06307226 -348.99517822 135.37817383 C-351.09128625 136.02831383 -353.18892908 136.67335011 -355.28662109 137.31835938 C-388.29298916 147.50525784 -420.60231606 159.57661064 -452 174 C-454.33463542 175.05989583 -456.66927083 176.11979167 -459.00390625 177.1796875 C-473.2440218 183.68421841 -487.23369516 190.54362916 -501 198 C-501.33 197.34 -501.66 196.68 -502 196 C-491.83202157 188.67603534 -481.56270621 181.66602475 -470.86376953 175.140625 C-469.06789685 174.0415528 -467.28071767 172.92972416 -465.49609375 171.8125 C-458.78131256 167.62666238 -451.98878118 163.70709263 -445 160 C-443.69115602 159.28822035 -442.38258309 158.57594216 -441.07421875 157.86328125 C-367.30206426 118 -367.30206426 118 -348 118 C-347.67 117.34 -347.34 116.68 -347 116 C-345.32788086 115.34838867 -345.32788086 115.34838867 -343.02734375 114.73046875 C-338.20666724 113.36674167 -333.44909904 111.8666483 -328.69140625 110.30078125 C-327.18819025 109.80912489 -325.68493445 109.31759021 -324.18164062 108.82617188 C-321.85487923 108.0644301 -319.52859641 107.30132511 -317.20336914 106.53491211 C-314.92982776 105.78622899 -312.65454367 105.04306488 -310.37890625 104.30078125 C-309.68205215 104.06958084 -308.98519806 103.83838043 -308.26722717 103.60017395 C-305.38464316 102.66386989 -303.05284042 102 -300 102 C-299.67 101.34 -299.34 100.68 -299 100 C-297.12792969 99.47705078 -297.12792969 99.47705078 -294.671875 99.0703125 C-289.85306822 98.19215061 -285.18097988 97.02313191 -280.45532227 95.74194336 C-229.24742971 81.89174712 -174.90910081 71.88093519 -121.74609375 71.83203125 C-119.79196312 71.82703865 -119.79196312 71.82703865 -117.7983551 71.82194519 C-115.0614438 71.81602257 -112.32456372 71.81409799 -109.58764648 71.81469727 C-106.8333475 71.81477824 -104.07921587 71.80786944 -101.32495117 71.79418945 C-84.7862017 71.71331484 -68.44057194 72.04411045 -52 74 C-51.16150513 74.09875427 -50.32301025 74.19750854 -49.45910645 74.29925537 C-44.96803083 74.83308369 -40.48234964 75.39635979 -36 76 C-36 72.32511285 -38.34775217 69.04469101 -39.98046875 65.80859375 C-40.39033524 64.989319 -40.80020172 64.17004425 -41.2224884 63.32594299 C-42.09410756 61.58573188 -42.96767567 59.84649581 -43.84301758 58.1081543 C-45.16875355 55.47473759 -46.48822128 52.83825787 -47.80664062 50.20117188 C-48.65587583 48.50762482 -49.50547425 46.81425984 -50.35546875 45.12109375 C-50.74526413 44.34261581 -51.13505951 43.56413788 -51.53666687 42.7620697 C-53.91701508 38.04133541 -56.42207266 33.42025478 -59.0695343 28.84339905 C-60 27 -60 27 -60 25 C-59.03320312 24.97421875 -58.06640625 24.9484375 -57.0703125 24.921875 C-45.13315492 24.40184041 -35.31349552 21.87665513 -26 14 C-24.05906942 11.79439707 -22.3066765 9.54272988 -20.60546875 7.1484375 C-17.29721759 2.72133741 -15.06388636 0.56641062 -9.5 -0.3125 C-8.5615625 -0.47363281 -7.623125 -0.63476562 -6.65625 -0.80078125 C-2.43567075 -1.11732469 -2.43567075 -1.11732469 0 0 Z " fill="#000" transform="translate(684,500)"/>
<path d="M0 0 C3.4241141 3.94153579 5.64321963 7.96066777 7.875 12.625 C10.74161911 18.50534815 13.73650288 24.27011944 16.96875 29.9609375 C18 32 18 32 18 34 C18.66 34.33 19.32 34.66 20 35 C21.27760577 37.35727261 22.46751491 39.70947609 23.625 42.125 C24.34462531 43.5972005 25.06602169 45.06853644 25.7890625 46.5390625 C26.34062012 47.66103027 26.34062012 47.66103027 26.90332031 48.80566406 C28.53630977 52.07309711 30.26244697 55.28728763 32 58.5 C34.68362018 63.47503895 37.2545356 68.49068198 39.75 73.5625 C42.71746511 79.57208799 45.87631535 85.45086566 49.125 91.3125 C56.37243363 104.42655825 63.11496767 117.80181606 69.90673828 131.15551758 C75.50000507 142.14808306 81.17850728 153.09023369 86.94244385 163.99423218 C88.36627812 166.69468545 89.77477714 169.40294185 91.1796875 172.11328125 C91.62803955 172.97791992 92.0763916 173.84255859 92.53833008 174.73339844 C93.47593481 176.54250462 94.41324679 178.35176254 95.3503418 180.16113281 C97.98822062 185.22875884 100.68047385 190.25726885 103.46484375 195.24609375 C104.02510254 196.25309326 104.58536133 197.26009277 105.16259766 198.29760742 C106.24315343 200.23119147 107.3323693 202.1599673 108.43115234 204.08325195 C108.91406738 204.94781006 109.39698242 205.81236816 109.89453125 206.703125 C110.32612549 207.46270508 110.75771973 208.22228516 111.20239258 209.00488281 C112 211 112 211 111 214 C110.47792969 213.54109375 109.95585938 213.0821875 109.41796875 212.609375 C100.82715543 205.44785636 91.29466517 201.63319085 80 202 C69.53544272 203.31597818 60.39674065 206.78935925 53.375 214.875 C52.59125 215.90625 51.8075 216.9375 51 218 C48 217 48 217 46.56469727 214.63696289 C46.07026123 213.5927417 45.5758252 212.54852051 45.06640625 211.47265625 C44.50655029 210.30210693 43.94669434 209.13155762 43.36987305 207.92553711 C42.76712157 206.63799557 42.1646721 205.35031261 41.5625 204.0625 C40.93149452 202.7321477 40.29972997 201.40215519 39.66723633 200.07250977 C35.29815573 190.86328137 31.01917605 181.61140227 26.76977539 172.34643555 C22.24630947 162.49112767 17.63029367 152.68048023 13 142.875 C12.63047211 142.09156219 12.26094421 141.30812439 11.88021851 140.50094604 C10.81707793 138.24750547 9.75255296 135.99472476 8.6875 133.7421875 C8.37440384 133.07859726 8.06130768 132.41500702 7.73872375 131.73130798 C5.55559195 127.12153518 3.29295504 122.55617253 1 118 C-3.89478243 127.63960313 -8.61023676 137.33019293 -13.04074097 147.1918335 C-14.64524193 150.76252384 -16.26105188 154.32810371 -17.875 157.89453125 C-18.37947914 159.01039612 -18.37947914 159.01039612 -18.89414978 160.14880371 C-22.70593299 168.57408232 -26.57125037 176.97461441 -30.4375 185.375 C-31.85574748 188.45820519 -33.27363866 191.54157412 -34.69140625 194.625 C-35.0432045 195.3900737 -35.39500275 196.1551474 -35.75746155 196.94340515 C-39.45205177 204.98009544 -43.13771315 213.02086354 -46.81765747 221.06427002 C-47.51435025 222.5868314 -48.21134408 224.10925508 -48.90866089 225.63153076 C-49.87484351 227.74094965 -50.83991943 229.85087135 -51.8046875 231.9609375 C-52.35108887 233.15509277 -52.89749023 234.34924805 -53.46044922 235.57958984 C-55.01648551 239.03662575 -56.51743134 242.51098094 -58 246 C-58.54527344 245.80664062 -59.09054687 245.61328125 -59.65234375 245.4140625 C-62.09089896 244.57203147 -64.5396885 243.77614727 -67 243 C-68.06154297 242.66355469 -68.06154297 242.66355469 -69.14453125 242.3203125 C-78.1692249 239.87577582 -88.07317482 240.73612618 -96.58984375 244.5859375 C-106.18258497 250.21409361 -112.79772535 258.5573132 -116.4375 269 C-118 272 -118 272 -121.0625 273.25 C-122.37465593 273.50179965 -123.68720248 273.75156707 -125 274 C-126.75443381 274.52712882 -128.50435699 275.0694523 -130.25 275.625 C-133.07179992 276.51009873 -135.01850649 277 -138 277 C-136.5565574 272.30530803 -134.6416995 267.96030107 -132.47265625 263.56640625 C-132.12424179 262.85258286 -131.77582733 262.13875946 -131.41685486 261.40330505 C-130.30224325 259.12130147 -129.18262837 256.84179996 -128.0625 254.5625 C-126.6143352 251.60622601 -125.1683629 248.64888297 -123.72265625 245.69140625 C-123.34641617 244.92291351 -122.97017609 244.15442078 -122.58253479 243.36264038 C-120.07736683 238.2364714 -117.61038298 233.09326204 -115.16073608 227.94035339 C-108.8517276 214.67464164 -102.33579094 201.51621995 -95.7565918 188.3828125 C-94.23580968 185.34696818 -92.71869195 182.30930913 -91.20249748 179.27117157 C-85.37136892 167.59031194 -79.49815362 155.93886415 -73.37876892 144.40594482 C-69.9479606 137.93414916 -66.65630365 131.39946455 -63.40820312 124.83444214 C-58.66514162 115.25412729 -53.86533553 105.70957193 -48.84765625 96.26953125 C-45.00757417 89.04262268 -41.25289878 81.77239969 -37.5 74.5 C-33.36214447 66.48469288 -29.21583657 58.47467431 -25 50.5 C-20.6633134 42.29412644 -16.38969731 34.05593566 -12.125 25.8125 C-11.79967285 25.18408203 -11.4743457 24.55566406 -11.13916016 23.90820312 C-9.08638497 19.94207084 -7.04148859 15.97195775 -5 12 C-4.35756348 10.7632251 -4.35756348 10.7632251 -3.70214844 9.50146484 C-2.08778419 6.35483499 -0.76940534 3.44913962 0 0 Z " fill="#000" transform="translate(548,246)"/>
<path d="M0 0 C0.2475 0.61875 0.495 1.2375 0.75 1.875 C2.25877388 4.4399156 3.33287219 4.78074157 6 6 C7.2684375 7.0209375 7.2684375 7.0209375 8.5625 8.0625 C10.92026019 10.16384349 10.92026019 10.16384349 14 11 C14 11.99 14 12.98 14 14 C13.34 14 12.68 14 12 14 C11.61714844 14.81210937 11.61714844 14.81210937 11.2265625 15.640625 C9.76373923 18.45446339 8.07906845 21.07508778 6.375 23.75 C-15.33039214 58.72062835 -23.58837221 100.49993106 -15 141 C-9.32929906 164.87875728 1.18376469 184.30808554 17 203 C3.13759289 200.36870976 -9.72611164 185.57755941 -17.68359375 174.515625 C-37.30868679 145.68743497 -41.31193806 107.42679458 -35.0390625 73.734375 C-32.0662469 59.53814621 -27.35239438 46.02324654 -21 33 C-20.69336426 32.36755371 -20.38672852 31.73510742 -20.07080078 31.08349609 C-15.28835954 21.35746344 -9.50424524 12.65307226 -3 4 C-2.40832031 3.20980469 -1.81664062 2.41960937 -1.20703125 1.60546875 C-0.80871094 1.07566406 -0.41039062 0.54585938 0 0 Z " fill="#000" transform="translate(219,399)"/>
<path d="M0 0 C8.72429877 6.21334053 13.65350887 14.38690487 15.53515625 24.89453125 C16.17799569 32.67132054 13.85758523 40.38632256 9.66015625 46.89453125 C3.34304615 54.26449303 -3.73346209 59.37828165 -13.5390625 60.14453125 C-23.78581582 60.49901353 -31.03871245 58.82471931 -39.08984375 52.39453125 C-46.18587843 45.55057595 -49.65605023 38.14096266 -49.96484375 28.26953125 C-49.52870886 18.78117437 -46.93527403 11.67082094 -40.40625 4.71875 C-28.85748157 -5.47647658 -13.58415486 -7.8067754 0 0 Z " fill="#000" transform="translate(268.33984375,347.10546875)"/>
<path d="M0 0 C6.26514071 5.77548042 10.22423098 12.23779082 10.9921875 20.90234375 C11.02140438 28.74707702 8.19145123 35.17286087 3 41 C-4.26231528 47.11683969 -9.62562368 49.38201205 -19.046875 49.28125 C-25.11661065 48.70317994 -30.12326439 46.54309373 -34.8125 42.6875 C-42.25132488 33.5483723 -43.89086915 26.86588212 -43 15 C-41.47056953 9.48906304 -38.31189673 5.71023672 -34 2 C-33.49726563 1.5565625 -32.99453125 1.113125 -32.4765625 0.65625 C-23.19559683 -6.83823871 -9.66050121 -6.84695401 0 0 Z " fill="#000" transform="translate(368,284)"/>
<path d="M0 0 C0 0.66 0 1.32 0 2 C-6.44353683 3.49427776 -12.88841063 4.97734748 -19.34765625 6.40234375 C-47.98818653 12.86556671 -75.59617148 22.40724673 -102.52514648 34.06713867 C-105.00913019 35.0034415 -107.38687663 35.55652718 -110 36 C-111.00533667 34.37829621 -112.00411907 32.75252763 -113 31.125 C-113.556875 30.22007812 -114.11375 29.31515625 -114.6875 28.3828125 C-116 26 -116 26 -116 24 C-78.2728443 8.17666276 -40.98030129 -0.39701045 0 0 Z " fill="#000" transform="translate(498,261)"/>
<path d="M0 0 C16.23485011 6.00748064 26.4946839 18.31237997 33.68359375 33.57421875 C37.49206654 43.5539279 38.02686665 53.41786896 37 64 C36.34 64.66 35.68 65.32 35 66 C34.14728516 65.58427734 34.14728516 65.58427734 33.27734375 65.16015625 C28.43946147 62.89063217 24.32801588 61.45344816 19 61 C19 58.36 19 55.72 19 53 C19.66 53 20.32 53 21 53 C19.63075213 33.62430076 19.63075213 33.62430076 11 17 C10.17919069 15.57893898 9.39093507 14.13887377 8.625 12.6875 C6.01362686 7.91022326 3.59318646 4.06212431 -1 1 C-0.67 0.67 -0.34 0.34 0 0 Z " fill="#000" transform="translate(789,321)"/>
<path d="M0 0 C7.00431034 9.28571429 7.00431034 9.28571429 8 14 C7.319375 14.42667969 6.63875 14.85335938 5.9375 15.29296875 C-3.63357097 21.46580042 -13.72947649 28.36260984 -21.58569336 36.6784668 C-23 38 -23 38 -25 38 C-25 38.66 -25 39.32 -25 40 C-28.33134241 38.59504255 -30.09333146 37.01145032 -32.25 34.125 C-33.03117187 33.10792969 -33.03117187 33.10792969 -33.828125 32.0703125 C-35 30 -35 30 -35 26 C-33.14787348 24.0751222 -31.38312136 22.47034469 -29.3125 20.8125 C-28.72887695 20.33272705 -28.14525391 19.8529541 -27.54394531 19.35864258 C-21.60385737 14.54526032 -15.3664718 10.22792722 -9 6 C-8.07058594 5.37609375 -7.14117187 4.7521875 -6.18359375 4.109375 C-4.12723839 2.73203526 -2.06668414 1.36176862 0 0 Z " fill="#000" transform="translate(316,318)"/>
<path d="M0 0 C2.90259745 0.01813821 5.80487149 0.02050978 8.70751953 0.02026367 C36.69999911 0.07248956 36.69999911 0.07248956 48.30517578 2.20581055 C48.30517578 2.53581055 48.30517578 2.86581055 48.30517578 3.20581055 C40.35018218 3.36101158 32.39509931 3.50915997 24.43981838 3.64877415 C20.74423056 3.71384289 17.04871503 3.78116797 13.35327148 3.85400391 C9.77420026 3.92445723 6.19506228 3.98852134 2.61580086 4.04850578 C0.61377794 4.08362043 -1.38813149 4.12502948 -3.39002991 4.16664124 C-12.22272702 4.30749823 -20.89624075 3.9205521 -29.69482422 3.20581055 C-29.69482422 2.87581055 -29.69482422 2.54581055 -29.69482422 2.20581055 C-19.91231101 -0.35517074 -10.0271434 -0.06461005 0 0 Z " fill="#000" transform="translate(534.69482421875,597.794189453125)"/>
<path d="M0 0 C0.99206451 -0.009104 1.98412903 -0.01820801 3.0062561 -0.02758789 C3.86599533 -0.03721558 4.72573456 -0.04684326 5.61152649 -0.0567627 C7.67544556 0.04858398 7.67544556 0.04858398 9.67544556 1.04858398 C9.67544556 1.70858398 9.67544556 2.36858398 9.67544556 3.04858398 C0.68674906 3.07181535 -8.30193701 3.08955392 -17.29065704 3.10039616 C-21.46505295 3.10560144 -25.63942822 3.11265607 -29.81381226 3.12402344 C-33.84680889 3.13493632 -37.87978575 3.14087854 -41.91279602 3.14346123 C-43.44686697 3.14530039 -44.98093692 3.14889168 -46.51499939 3.15431404 C-61.31691569 3.2045244 -61.31691569 3.2045244 -68.32455444 2.04858398 C-68.32455444 1.71858398 -68.32455444 1.38858398 -68.32455444 1.04858398 C-60.03960057 0.91718157 -51.75463256 0.78672366 -43.4696455 0.65743256 C-39.62155118 0.59735239 -35.7734623 0.53696123 -31.92538452 0.47583008 C-28.2036128 0.41671737 -24.48182854 0.3584598 -20.76003456 0.30076599 C-19.34845831 0.27873958 -17.93688663 0.25641816 -16.52532005 0.23377991 C-11.01699454 0.14558609 -5.50842644 0.0804984 0 0 Z " fill="#000" transform="translate(772.3245544433594,683.951416015625)"/>
<path d="M0 0 C0.66 0 1.32 0 2 0 C2.18175781 0.61488281 2.36351562 1.22976563 2.55078125 1.86328125 C2.80214844 2.67152344 3.05351563 3.47976563 3.3125 4.3125 C3.55613281 5.11300781 3.79976562 5.91351562 4.05078125 6.73828125 C4.83946234 9.02903104 4.83946234 9.02903104 6.46484375 10.4296875 C8.61302542 12.62706417 9.2376903 14.92171419 10.25 17.8125 C12.96253615 25.17865322 16.38383139 32.04903613 20 39 C18.24316406 38.93041992 18.24316406 38.93041992 16 38 C14.50848545 35.70724141 13.29974963 33.55658506 12.109375 31.11328125 C11.75989807 30.4186528 11.41042114 29.72402435 11.050354 29.00834656 C10.31418109 27.53638223 9.58499743 26.06090473 8.86230469 24.58227539 C7.75817481 22.32918157 6.62717395 20.09119417 5.4921875 17.85351562 C4.7795896 16.42009507 4.06859906 14.9858741 3.359375 13.55078125 C3.02194275 12.88492508 2.6845105 12.21906891 2.33685303 11.53303528 C0.39815584 7.51601483 -0.3699005 4.45386006 0 0 Z " fill="#000" transform="translate(630,532)"/>
<path d="M0 0 C2.367477 2.14073273 3.61111835 3.99164636 4.8125 6.9375 C6.36670067 10.60139512 8.06101381 14.14478023 9.875 17.6875 C13.23536751 24.33108372 16.13468409 31.13137037 19 38 C17.21362305 37.90087891 17.21362305 37.90087891 15 37 C13.65670733 34.85156903 12.61174142 32.87937538 11.58203125 30.5859375 C11.27931808 29.93807281 10.97660492 29.29020813 10.66471863 28.62271118 C10.02676161 27.24891802 9.395935 25.87179454 8.77172852 24.49169922 C7.82196977 22.39589665 6.84769671 20.31295456 5.86914062 18.23046875 C5.25109844 16.89131889 4.63451523 15.55149454 4.01953125 14.2109375 C3.73100784 13.59399017 3.44248444 12.97704285 3.1452179 12.34140015 C1.27394948 8.16302716 0.45979252 4.50416363 0 0 Z " fill="#000" transform="translate(569,401)"/>
<path d="M0 0 C3.99801571 1.3326719 4.76518993 3.7155753 6.57421875 7.265625 C6.90291458 7.89603699 7.23161041 8.52644897 7.57026672 9.17596436 C8.26335119 10.51178377 8.9514772 11.85018577 9.63500977 13.19091797 C10.68011009 15.23554245 11.74596037 17.26830345 12.81445312 19.30078125 C13.4856591 20.60090037 14.1556221 21.9016621 14.82421875 23.203125 C15.14291428 23.80852112 15.4616098 24.41391724 15.78996277 25.03765869 C17.53752111 28.50716014 18.37207474 31.1099197 18 35 C11 26.25 11 26.25 11 21 C10.34 21 9.68 21 9 21 C7.86722732 18.81623234 6.74377211 16.62842872 5.625 14.4375 C5.14933594 13.52387695 5.14933594 13.52387695 4.6640625 12.59179688 C2.56688626 8.46298114 1.14396064 4.48917887 0 0 Z " fill="#000" transform="translate(618,382)"/>
<path d="M0 0 C-1.25755911 3.77267732 -2.45738728 4.16675257 -5.8125 6.1875 C-18.40836246 13.89678423 -18.40836246 13.89678423 -30 23 C-30.66 22.67 -31.32 22.34 -32 22 C-28.3908118 17.26121854 -24.7662837 14.16717862 -19.75 11 C-18.41653642 10.13822234 -17.0832027 9.27624371 -15.75 8.4140625 C-15.10804688 8.00317383 -14.46609375 7.59228516 -13.8046875 7.16894531 C-10.72893565 5.17669695 -7.73407206 3.06537614 -4.734375 0.9609375 C-3 0 -3 0 0 0 Z " fill="#000" transform="translate(272,589)"/>
<path d="M0 0 C5.25388796 1.75129599 6.7623251 7.52533653 9.1875 12.25 C9.74630859 13.30058594 10.30511719 14.35117187 10.88085938 15.43359375 C11.40873047 16.45066406 11.93660156 17.46773437 12.48046875 18.515625 C12.96410889 19.44665039 13.44774902 20.37767578 13.94604492 21.33691406 C15.04462344 24.11275248 15.21563588 26.04595554 15 29 C10.62441257 25.10194101 8.46447799 19.62903164 5.8125 14.5 C5.25369141 13.44167969 4.69488281 12.38335938 4.11914062 11.29296875 C3.59126953 10.27847656 3.06339844 9.26398437 2.51953125 8.21875 C2.03589111 7.28998047 1.55225098 6.36121094 1.05395508 5.40429688 C0 3 0 3 0 0 Z " fill="#000" transform="translate(754,638)"/>
<path d="M0 0 C0 0.66 0 1.32 0 2 C-2.41656376 2.64622041 -4.83324646 3.29199004 -7.25 3.9375 C-7.93191406 4.11990234 -8.61382813 4.30230469 -9.31640625 4.49023438 C-11.21029944 4.99588547 -13.10512028 5.49805846 -15 6 C-15.7115625 6.20625 -16.423125 6.4125 -17.15625 6.625 C-19.54887337 7.11163526 -21.81121089 7.09458933 -24.25 7.0625 C-25.14203125 7.05347656 -26.0340625 7.04445313 -26.953125 7.03515625 C-27.62859375 7.02355469 -28.3040625 7.01195312 -29 7 C-28.67 6.34 -28.34 5.68 -28 5 C-25.83440745 4.41232224 -23.63988184 3.92973304 -21.4375 3.5 C-17.42380956 2.69726191 -13.44703341 1.89735714 -9.5 0.8125 C-6.19067147 0.04426302 -3.38094636 -0.16904732 0 0 Z " fill="#000" transform="translate(528,525)"/>
<path d="M0 0 C-3.84548387 3.84548387 -10.25306721 4.05813868 -15.4375 5.1875 C-16.69111328 5.47302734 -17.94472656 5.75855469 -19.23632812 6.05273438 C-20.43580078 6.31763672 -21.63527344 6.58253906 -22.87109375 6.85546875 C-23.97380615 7.09934326 -25.07651855 7.34321777 -26.21264648 7.59448242 C-29 8 -29 8 -32 7 C-27.63151868 3.95080004 -23.36929474 2.90523982 -18.25 1.8125 C-17.48945313 1.63525391 -16.72890625 1.45800781 -15.9453125 1.27539062 C-10.53134838 0.08707138 -5.54018876 -0.16002537 0 0 Z " fill="#000" transform="translate(449,587)"/>
<path d="M0 0 C7.28895701 -0.19759221 14.2847975 0.36370477 21.5 1.375 C22.48742187 1.50132812 23.47484375 1.62765625 24.4921875 1.7578125 C25.43320312 1.88671875 26.37421875 2.015625 27.34375 2.1484375 C28.19130859 2.26364746 29.03886719 2.37885742 29.91210938 2.49755859 C32 3 32 3 34 5 C30.66642262 4.8594438 27.33320611 4.71158198 24 4.5625 C23.06542969 4.52318359 22.13085938 4.48386719 21.16796875 4.44335938 C5.86157718 3.7476143 5.86157718 3.7476143 0 1 C0 0.67 0 0.34 0 0 Z " fill="#000" transform="translate(590,601)"/>
<path d="M0 0 C2.48594179 3.72891269 2.89635418 7.28976529 3.5625 11.625 C3.68818359 12.39457031 3.81386719 13.16414062 3.94335938 13.95703125 C4.79653461 19.29049318 5.43711273 24.62844721 6 30 C1.28156046 25.57661285 0.27380339 19.30618061 -0.12890625 12.97265625 C-0.24981387 8.64416351 -0.15961266 4.32727645 0 0 Z " fill="#000" transform="translate(184,516)"/>
<path d="M0 0 C1.13643966 3.40931897 0.86747764 4.00335456 -0.4375 7.1875 C-0.72496094 7.90292969 -1.01242187 8.61835938 -1.30859375 9.35546875 C-1.53675781 9.89816406 -1.76492188 10.44085938 -2 11 C-2.66 11 -3.32 11 -4 11 C-4.2475 12.010625 -4.495 13.02125 -4.75 14.0625 C-5.89660638 18.13378354 -7.79741473 21.40244406 -10 25 C-10.33 25 -10.66 25 -11 25 C-10.54289459 18.84540221 -8.48039536 14.47679353 -5.5 9.125 C-5.08363281 8.35414063 -4.66726563 7.58328125 -4.23828125 6.7890625 C-1.19507119 1.19507119 -1.19507119 1.19507119 0 0 Z " fill="#000" transform="translate(431,480)"/>
<path d="M0 0 C0 4.71401224 -2.36260055 8.42735698 -4.375 12.625 C-4.7875 13.50929688 -5.2 14.39359375 -5.625 15.3046875 C-6.02460938 16.14515625 -6.42421875 16.985625 -6.8359375 17.8515625 C-7.20251465 18.62322754 -7.5690918 19.39489258 -7.94677734 20.18994141 C-9 22 -9 22 -11 23 C-10.49234928 17.65594711 -9.10999865 13.4675284 -6.625 8.6875 C-6.16867187 7.7584082 -6.16867187 7.7584082 -5.703125 6.81054688 C-4.06908304 3.59483609 -3.06207113 2.04138076 0 0 Z " fill="#000" transform="translate(457,429)"/>
<path d="M0 0 C0.99 0 1.98 0 3 0 C4.36907416 2.57637588 5.72028455 5.15968104 7.0625 7.75 C7.45244141 8.47960937 7.84238281 9.20921875 8.24414062 9.9609375 C8.79038086 11.02441406 8.79038086 11.02441406 9.34765625 12.109375 C9.68804932 12.75874023 10.02844238 13.40810547 10.37915039 14.07714844 C11.13558044 16.41991018 10.78821819 17.70456573 10 20 C9.15504811 18.92570402 8.32445142 17.84010798 7.5 16.75 C7.0359375 16.14671875 6.571875 15.5434375 6.09375 14.921875 C5 13 5 13 5 9 C4.34 9 3.68 9 3 9 C2.01 6.03 1.02 3.06 0 0 Z " fill="#000" transform="translate(742,616)"/>
<path d="M0 0 C6.27 0 12.54 0 19 0 C19 0.66 19 1.32 19 2 C16.91798472 2.50546036 14.83432933 3.00416835 12.75 3.5 C11.58984375 3.7784375 10.4296875 4.056875 9.234375 4.34375 C6 5 6 5 2 5 C2 4.34 2 3.68 2 3 C2.66 2.67 3.32 2.34 4 2 C2.68 1.34 1.36 0.68 0 0 Z " fill="#000" transform="translate(479,261)"/>
<path d="M0 0 C0 0.66 0 1.32 0 2 C-2.70440515 3.01189324 -5.41270901 4.00965691 -8.125 5 C-8.88554687 5.28617188 -9.64609375 5.57234375 -10.4296875 5.8671875 C-14.77716157 7.44127294 -18.30189258 8.36023827 -23 8 C-22 6 -22 6 -20.29760742 5.22216797 C-19.57420166 4.98127441 -18.8507959 4.74038086 -18.10546875 4.4921875 C-17.31462891 4.22792969 -16.52378906 3.96367188 -15.70898438 3.69140625 C-14.87689453 3.42199219 -14.04480469 3.15257812 -13.1875 2.875 C-12.36701172 2.59785156 -11.54652344 2.32070313 -10.70117188 2.03515625 C-6.85414116 0.76841296 -4.11756253 0 0 0 Z " fill="#000" transform="translate(325,636)"/>
<path d="M0 0 C1.32 1.32 2.64 2.64 4 4 C3.34 5.32 2.68 6.64 2 8 C-0.79354568 7.55135776 -3.58444672 7.09158769 -6.375 6.625 C-7.1690625 6.49867188 -7.963125 6.37234375 -8.78125 6.2421875 C-9.54179688 6.11328125 -10.30234375 5.984375 -11.0859375 5.8515625 C-11.7876709 5.73635254 -12.4894043 5.62114258 -13.21240234 5.50244141 C-15 5 -15 5 -17 3 C-11.39 3 -5.78 3 0 3 C0 2.01 0 1.02 0 0 Z " fill="#000" transform="translate(650,573)"/>
<path d="M0 0 C-1 2 -1 2 -3.40625 3.03515625 C-9.67244254 5.11597524 -15.40760977 6.56050732 -22 7 C-20.27148984 3.54297968 -16.16655084 3.02745202 -12.6875 1.8125 C-11.91470703 1.52697266 -11.14191406 1.24144531 -10.34570312 0.94726562 C-9.22131836 0.54991211 -9.22131836 0.54991211 -8.07421875 0.14453125 C-7.38932373 -0.09934326 -6.70442871 -0.34321777 -5.9987793 -0.59448242 C-3.68281714 -1.06435089 -2.22470469 -0.72849821 0 0 Z " fill="#000" transform="translate(712,478)"/>
<path d="M0 0 C0.66 0 1.32 0 2 0 C2.23710693 0.5347998 2.47421387 1.06959961 2.71850586 1.62060547 C3.79101971 4.03895206 4.86425115 6.45697952 5.9375 8.875 C6.31068359 9.71675781 6.68386719 10.55851562 7.06835938 11.42578125 C7.42607422 12.23144531 7.78378906 13.03710938 8.15234375 13.8671875 C8.6472229 14.98262939 8.6472229 14.98262939 9.15209961 16.12060547 C9.74113727 17.42622365 10.35943709 18.71887418 11 20 C9.234375 19.95703125 9.234375 19.95703125 7 19 C5.54622592 16.55044976 4.37957544 14.27873637 3.25 11.6875 C2.93417969 11.01009766 2.61835937 10.33269531 2.29296875 9.63476562 C0.71561262 6.14204848 0 3.88826202 0 0 Z " fill="#000" transform="translate(558,378)"/>
<path d="M0 0 C0.66 0 1.32 0 2 0 C2 6.6 2 13.2 2 20 C2.66 20.33 3.32 20.66 4 21 C2.35 21 0.7 21 -1 21 C-1.33 18.69 -1.66 16.38 -2 14 C-1.34 14 -0.68 14 0 14 C0 9.38 0 4.76 0 0 Z " fill="#000" transform="translate(810,360)"/>
<path d="M0 0 C3.40896916 2.77767858 4.94589119 6.60223405 6.75 10.5 C7.07871094 11.17675781 7.40742187 11.85351562 7.74609375 12.55078125 C10.12211361 17.63365917 10.12211361 17.63365917 9 21 C9 20.34 9 19.68 9 19 C8.01 18.67 7.02 18.34 6 18 C4.39453125 15.234375 4.39453125 15.234375 2.8125 11.75 C2.28269531 10.61046875 1.75289062 9.4709375 1.20703125 8.296875 C0.08100306 5.22125107 -0.27279059 3.22499098 0 0 Z " fill="#000" transform="translate(673,628)"/>
<path d="M0 0 C4.15443538 1.38481179 4.65008292 3.43998734 6.6875 7.25 C7.62142578 8.95929687 7.62142578 8.95929687 8.57421875 10.703125 C9.93234931 13.84356937 10.33422086 15.64517931 10 19 C6.89163031 16.32201996 5.23862093 13.08573456 3.3125 9.5 C2.68988281 8.3553125 2.06726563 7.210625 1.42578125 6.03125 C0 3 0 3 0 0 Z " fill="#000" transform="translate(714,562)"/>
<path d="M0 0 C0.33 0 0.66 0 1 0 C0.63626512 5.94100298 -0.93923358 9.61437227 -5 14 C-6.970652 15.72370313 -8.64194287 16.76970933 -11 18 C-11.99 17.67 -12.98 17.34 -14 17 C-13.40832031 16.52691406 -12.81664062 16.05382812 -12.20703125 15.56640625 C-6.66426261 10.92784131 -3.02584292 6.56866403 0 0 Z " fill="#000" transform="translate(497,535)"/>
<path d="M0 0 C-2.04912029 2.04912029 -3.20941909 2.60188499 -5.875 3.5625 C-6.55304688 3.81128906 -7.23109375 4.06007813 -7.9296875 4.31640625 C-11.46963681 5.48525744 -14.50973327 6.12483778 -18.25 6.0625 C-20.10625 6.0315625 -20.10625 6.0315625 -22 6 C-21.67 5.34 -21.34 4.68 -21 4 C-18.41216145 3.19056192 -15.88226179 2.5006256 -13.25 1.875 C-12.53328125 1.69324219 -11.8165625 1.51148438 -11.078125 1.32421875 C-7.31010126 0.40299236 -3.90961317 -0.23088267 0 0 Z " fill="#000" transform="translate(394,617)"/>
<path d="M0 0 C-0.99 0.33 -1.98 0.66 -3 1 C-3 1.66 -3 2.32 -3 3 C-14.52164009 6.44419134 -14.52164009 6.44419134 -20 6 C-19 4 -19 4 -15.5078125 2.67578125 C-14.04943443 2.21320612 -12.58833811 1.75913624 -11.125 1.3125 C-10.39152344 1.07466797 -9.65804688 0.83683594 -8.90234375 0.59179688 C-3.37469059 -1.12489686 -3.37469059 -1.12489686 0 0 Z " fill="#000" transform="translate(353,628)"/>
<path d="M0 0 C0.33 0.66 0.66 1.32 1 2 C0.28735352 3.78759766 0.28735352 3.78759766 -0.87109375 5.9140625 C-1.28037109 6.67460937 -1.68964844 7.43515625 -2.11132812 8.21875 C-2.54896484 9.0128125 -2.98660156 9.806875 -3.4375 10.625 C-3.87126953 11.42679687 -4.30503906 12.22859375 -4.75195312 13.0546875 C-5.82756988 15.04044151 -6.91047213 17.0218546 -8 19 C-8.66 19 -9.32 19 -10 19 C-9.25680154 14.95822209 -7.39079496 11.45047185 -5.5625 7.8125 C-5.24990234 7.17119141 -4.93730469 6.52988281 -4.61523438 5.86914062 C-2.24422722 1.12211361 -2.24422722 1.12211361 0 0 Z " fill="#000" transform="translate(541,265)"/>
<path d="M0 0 C0.75732422 0.00966797 1.51464844 0.01933594 2.29492188 0.02929688 C3.08060547 0.05443359 3.86628906 0.07957031 4.67578125 0.10546875 C5.87170898 0.12577148 5.87170898 0.12577148 7.09179688 0.14648438 C9.05758092 0.18179786 11.02301707 0.23560428 12.98828125 0.29296875 C9.14167245 4.13957755 3.76919951 3.34938866 -1.38671875 3.35546875 C-3.2617665 3.33950119 -5.13680182 3.32027337 -7.01171875 3.29296875 C-4.74810376 0.60821609 -3.50571314 -0.07907624 0 0 Z " fill="#000" transform="translate(500.01171875,576.70703125)"/>
<path d="M0 0 C0 3.58414855 -1.12220522 4.8061179 -3.43359375 7.43359375 C-6.08884786 10.08884786 -8.787251 12.03665339 -12 14 C-12.99 13.67 -13.98 13.34 -15 13 C-14.34 13 -13.68 13 -13 13 C-12.78601563 12.43796875 -12.57203125 11.8759375 -12.3515625 11.296875 C-10.5318038 8.2043371 -8.18147612 6.46907414 -5.375 4.25 C-4.37210938 3.45078125 -3.36921875 2.6515625 -2.3359375 1.828125 C-1.17964844 0.92320312 -1.17964844 0.92320312 0 0 Z " fill="#000" transform="translate(665,508)"/>
<path d="M0 0 C-2.05233685 2.2477975 -3.00667261 3.0022242 -6 4 C-8.22818441 4.06937062 -10.45834524 4.08457084 -12.6875 4.0625 C-14.45673828 4.04896484 -14.45673828 4.04896484 -16.26171875 4.03515625 C-17.16535156 4.02355469 -18.06898438 4.01195312 -19 4 C-18.360625 3.690625 -17.72125 3.38125 -17.0625 3.0625 C-15.06389179 2.1654837 -15.06389179 2.1654837 -14 1 C-9.27917277 0.27987381 -4.78426665 -0.11960667 0 0 Z " fill="#000" transform="translate(645,524)"/>
<path d="M0 0 C0.99 0 1.98 0 3 0 C4.03544174 1.90881434 5.05290085 3.82739204 6.0625 5.75 C6.91521484 7.35101562 6.91521484 7.35101562 7.78515625 8.984375 C9.01044806 12.02593537 9.25348607 13.04893565 8 16 C6.66141476 13.71125827 5.32898986 11.41930344 4 9.125 C3.6184375 8.47402344 3.236875 7.82304688 2.84375 7.15234375 C0 2.2265625 0 2.2265625 0 0 Z " fill="#000" transform="translate(733,599)"/>
<path d="M0 0 C-0.33 1.32 -0.66 2.64 -1 4 C-6.80766296 5.5056904 -11.9981863 6.21824777 -18 6 C-16.66666667 5.33333333 -15.33333333 4.66666667 -14 4 C-13.4225 3.67 -12.845 3.34 -12.25 3 C-8.4599574 1.31553662 -4.15953048 0 0 0 Z " fill="#000" transform="translate(430,515)"/>
<path d="M0 0 C0.33 0 0.66 0 1 0 C0.6374404 6.64692597 -1.15411575 11.52470684 -5 17 C-5.66 17.33 -6.32 17.66 -7 18 C-6.35534798 13.66695924 -4.81074878 10.13327935 -2.9375 6.1875 C-2.11572266 4.44533203 -2.11572266 4.44533203 -1.27734375 2.66796875 C-0.85582031 1.78753906 -0.43429687 0.90710938 0 0 Z " fill="#000" transform="translate(518,423)"/>
<path d="M0 0 C0.33 0.66 0.66 1.32 1 2 C1.66 2.33 2.32 2.66 3 3 C-4.92 6.96 -4.92 6.96 -13 11 C-13 10.34 -13 9.68 -13 9 C-10.86229382 7.37322909 -8.7324466 5.86020356 -6.5 4.375 C-5.87996094 3.95476563 -5.25992188 3.53453125 -4.62109375 3.1015625 C-3.08482736 2.06162833 -1.54292476 1.03002944 0 0 Z " fill="#000" transform="translate(195,687)"/>
<path d="M0 0 C-0.33 0.66 -0.66 1.32 -1 2 C-6.89259861 3.65155878 -12.90281525 4.27098599 -19 4 C-17.27242385 1.79254158 -16.17482416 1.04690404 -13.4375 0.3125 C-8.94903435 -0.09554233 -4.50330462 -0.0800983 0 0 Z " fill="#000" transform="translate(481,581)"/>
<path d="M0 0 C0.33 0 0.66 0 1 0 C1.49407884 4.05144647 1.03985335 6.39627347 -1.25 9.6875 C-3.24583556 12.23585501 -5.15133026 14.38575382 -8 16 C-8.99 16 -9.98 16 -11 16 C-11 15.34 -11 14.68 -11 14 C-10.21625 13.7525 -9.4325 13.505 -8.625 13.25 C-5.52407715 11.77337007 -5.34540831 11.03801876 -4 8 C-2.66666667 5.33333333 -1.33333333 2.66666667 0 0 Z " fill="#000" transform="translate(279,385)"/>
<path d="M0 0 C0.66 0 1.32 0 2 0 C3.17407021 2.26727333 4.33939739 4.53834624 5.5 6.8125 C6.00080078 7.77639648 6.00080078 7.77639648 6.51171875 8.75976562 C8.00239084 11.69547699 9 13.66126517 9 17 C8.34 17 7.68 17 7 17 C5.82592979 14.73272667 4.66060261 12.46165376 3.5 10.1875 C3.16613281 9.54490234 2.83226562 8.90230469 2.48828125 8.24023438 C0.99760916 5.30452301 0 3.33873483 0 0 Z " fill="#000" transform="translate(683,502)"/>
<path d="M0 0 C0.66 0 1.32 0 2 0 C1.57815409 4.49968972 -0.39236738 7.4699908 -2.84375 11.1328125 C-4.16172777 13.10083909 -4.16172777 13.10083909 -5 16 C-5.66 16 -6.32 16 -7 16 C-6.36688159 9.51053625 -3.56796924 5.35195386 0 0 Z " fill="#000" transform="translate(437,498)"/>
<path d="M0 0 C6.76215448 0.40939975 12.67162748 1.56953809 19 4 C19 4.33 19 4.66 19 5 C12.79223894 5.33860515 7.70351973 4.57960021 2 2 C1.34 1.34 0.68 0.68 0 0 Z " fill="#000" transform="translate(648,611)"/>
<path d="M0 0 C3 1 3 1 4.3515625 3.07421875 C6.6068531 7.70240713 8.58828858 11.78498862 9 17 C4.51695453 13.34714813 2.14614053 8.26859909 0 3 C0 2.01 0 1.02 0 0 Z " fill="#000" transform="translate(724,581)"/>
<path d="M0 0 C1 3 1 3 -0.21484375 5.91796875 C-0.78332031 6.99691406 -1.35179687 8.07585937 -1.9375 9.1875 C-2.50339844 10.27417969 -3.06929688 11.36085938 -3.65234375 12.48046875 C-4.09707031 13.31191406 -4.54179687 14.14335937 -5 15 C-5.66 15 -6.32 15 -7 15 C-6.41924692 11.27790075 -5.38005719 8.50730838 -3.5 5.25 C-3.0565625 4.47140625 -2.613125 3.6928125 -2.15625 2.890625 C-1 1 -1 1 0 0 Z " fill="#000" transform="translate(507,449)"/>
<path d="M0 0 C1 3 1 3 -0.65234375 6.35546875 C-1.40377702 7.63889017 -2.16596501 8.91606134 -2.9375 10.1875 C-3.51661133 11.16879883 -3.51661133 11.16879883 -4.10742188 12.16992188 C-5.06253088 13.78535316 -6.03010066 15.39340525 -7 17 C-8.21992215 14.0877003 -8.01199085 13.03122531 -6.85546875 10.01953125 C-6.02982422 8.43205078 -6.02982422 8.43205078 -5.1875 6.8125 C-4.64480469 5.74644531 -4.10210937 4.68039062 -3.54296875 3.58203125 C-2 1 -2 1 0 0 Z " fill="#000" transform="translate(204,423)"/>
<path d="M0 0 C0.33 0.99 0.66 1.98 1 3 C-0.29296875 4.9375 -0.29296875 4.9375 -2.1875 7 C-2.79980469 7.680625 -3.41210938 8.36125 -4.04296875 9.0625 C-9.03024194 14 -9.03024194 14 -12 14 C-10.86314577 10.58943731 -9.84668031 9.80065835 -7.125 7.5625 C-4.31138586 5.24204701 -2.09258206 2.99410327 0 0 Z " fill="#000" transform="translate(341,591)"/>
<path d="M0 0 C-1.45012547 2.90025094 -3.31312909 3.08706855 -6.3125 4.1875 C-7.27800781 4.55230469 -8.24351562 4.91710937 -9.23828125 5.29296875 C-12.0347797 6.008904 -13.33859538 5.99249531 -16 5 C-11.83245968 -0.09366039 -6.19073701 -0.24762948 0 0 Z " fill="#000" transform="translate(384,542)"/>
<path d="M0 0 C0.99 0 1.98 0 3 0 C4.03572896 1.74122549 5.0531252 3.49336595 6.0625 5.25 C6.63097656 6.22453125 7.19945312 7.1990625 7.78515625 8.203125 C9 11 9 11 8.68359375 13.359375 C8.45800781 13.90078125 8.23242188 14.4421875 8 15 C3.86232737 10.56677932 2.04471126 5.60120371 0 0 Z " fill="#000" transform="translate(568,288)"/>
<path d="M0 0 C0 0.66 0 1.32 0 2 C-10.37357631 5.44419134 -10.37357631 5.44419134 -16 5 C-12.15912446 0.02945518 -5.86103584 -0.28590419 0 0 Z " fill="#000" transform="translate(401,598)"/>
<path d="M0 0 C0.66 0 1.32 0 2 0 C1.46148032 5.27749285 0.22656164 9.25645564 -2 14 C-2.99 14 -3.98 14 -5 14 C-3.45730076 9.27934033 -1.92205381 4.58335908 0 0 Z " fill="#000" transform="translate(535,384)"/>
<path d="M0 0 C-1 3 -1 3 -2.63671875 3.94921875 C-6.91126307 5.4880547 -10.38405568 6.34619582 -15 6 C-14 4 -14 4 -11.34765625 2.9296875 C-10.26355469 2.58164062 -9.17945313 2.23359375 -8.0625 1.875 C-6.98097656 1.52179687 -5.89945312 1.16859375 -4.78515625 0.8046875 C-2 0 -2 0 0 0 Z " fill="#000" transform="translate(300,644)"/>
<path d="M0 0 C-2.44371368 2.95817972 -4.21185245 3.58824483 -8 4 C-11.00220826 4.07064019 -13.99770843 4.05886846 -17 4 C-11.6013038 0.4008692 -6.3999927 -0.26122419 0 0 Z " fill="#000" transform="translate(418,612)"/>
<path d="M0 0 C1.09570312 0.00902344 2.19140625 0.01804687 3.3203125 0.02734375 C4.16335938 0.03894531 5.00640625 0.05054688 5.875 0.0625 C3.46925724 2.46824276 2.23935997 2.51946282 -1.0625 3.0625 C-4.54599497 3.63709711 -6.11095726 4.05313817 -9.125 6.0625 C-8.75 3.625 -8.75 3.625 -8.125 1.0625 C-5.36047967 -0.31976016 -3.0788637 -0.03275387 0 0 Z " fill="#000" transform="translate(675.125,500.9375)"/>
<path d="M0 0 C0.33 0.66 0.66 1.32 1 2 C-1.24743045 2.53181175 -3.49807102 3.05007126 -5.75 3.5625 C-7.62945313 3.99755859 -7.62945313 3.99755859 -9.546875 4.44140625 C-12.59473748 4.93444283 -14.17641828 5.07666879 -17 4 C-11.33251843 1.16625922 -6.30267439 0.36776168 0 0 Z " fill="#000" transform="translate(595,488)"/>
<path d="M0 0 C-0.99 0.33 -1.98 0.66 -3 1 C-3 1.66 -3 2.32 -3 3 C-4.24420647 3.5345256 -5.49570936 4.05208611 -6.75 4.5625 C-7.44609375 4.85253906 -8.1421875 5.14257812 -8.859375 5.44140625 C-11.30012784 6.07831803 -12.6403655 5.80248831 -15 5 C-10.14488244 1.04397828 -6.28074033 -0.29212746 0 0 Z " fill="#000" transform="translate(745,445)"/>
<path d="M0 0 C0 0.99 0 1.98 0 3 C-4.62 3 -9.24 3 -14 3 C-14 2.34 -14 1.68 -14 1 C-9.27685687 0.22887459 -4.78478822 -0.09764874 0 0 Z " fill="#000" transform="translate(456,605)"/>
<path d="M0 0 C1 3 1 3 -0.1875 6.5 C-1.88906681 9.78578418 -2.87850793 11.17015982 -6 13 C-5.26083824 7.97370003 -3.63107238 3.63107238 0 0 Z " fill="#000" transform="translate(439,464)"/>
<path d="M0 0 C0 0.66 0 1.32 0 2 C-2.10063576 2.69821417 -4.20565737 3.38324472 -6.3125 4.0625 C-7.48425781 4.44535156 -8.65601563 4.82820313 -9.86328125 5.22265625 C-13 6 -13 6 -16 5 C-5.62642369 -0.74031891 -5.62642369 -0.74031891 0 0 Z " fill="#000" transform="translate(695,463)"/>
<path d="M0 0 C0.66 0 1.32 0 2 0 C1.54996653 5.62541841 0.31558515 8.61487125 -3 13 C-3.66 12.67 -4.32 12.34 -5 12 C-4.67 10.68 -4.34 9.36 -4 8 C-3.34 8 -2.68 8 -2 8 C-1.855625 7.236875 -1.71125 6.47375 -1.5625 5.6875 C-1 3 -1 3 0 0 Z " fill="#000" transform="translate(542,369)"/>
<path d="M0 0 C-3.00950123 1.61725534 -5.97103608 2.67582623 -9.25 3.625 C-10.14203125 3.88539063 -11.0340625 4.14578125 -11.953125 4.4140625 C-12.62859375 4.60742188 -13.3040625 4.80078125 -14 5 C-14 4.34 -14 3.68 -14 3 C-9.04538742 -0.44070318 -5.85751906 -1.46437976 0 0 Z " fill="#000" transform="translate(356,552)"/>
<path d="M0 0 C0.69921875 1.76171875 0.69921875 1.76171875 1 4 C-0.29296875 5.95703125 -0.29296875 5.95703125 -2.1875 7.8125 C-2.79980469 8.43769531 -3.41210938 9.06289063 -4.04296875 9.70703125 C-6 11 -6 11 -8.23828125 10.69921875 C-8.81964844 10.46847656 -9.40101563 10.23773437 -10 10 C-9.52949219 9.61328125 -9.05898438 9.2265625 -8.57421875 8.828125 C-5.3182388 6.10469664 -2.34546467 3.58718126 0 0 Z " fill="#000" transform="translate(655,502)"/>
<path d="M0 0 C0.58394531 0.21914063 1.16789063 0.43828125 1.76953125 0.6640625 C1.15464844 1.13457031 0.53976563 1.60507812 -0.09375 2.08984375 C-0.90199219 2.71246094 -1.71023437 3.33507812 -2.54296875 3.9765625 C-3.34347656 4.59144531 -4.14398438 5.20632813 -4.96875 5.83984375 C-6.85748249 7.36322557 -8.56124511 8.90840657 -10.23046875 10.6640625 C-10.14710897 7.8298301 -9.6165562 6.10704705 -7.74609375 3.9609375 C-2.93209205 -0.44161106 -2.93209205 -0.44161106 0 0 Z " fill="#000" transform="translate(236.23046875,347.3359375)"/>
<path d="M0 0 C-0.33 0.99 -0.66 1.98 -1 3 C-5.07467725 4.48882438 -8.66541415 5.26270217 -13 5 C-13 4.34 -13 3.68 -13 3 C-11.39743892 2.49487756 -9.79288208 1.99608373 -8.1875 1.5 C-7.29417969 1.2215625 -6.40085937 0.943125 -5.48046875 0.65625 C-3 0 -3 0 0 0 Z " fill="#000" transform="translate(440,548)"/>
<path d="M0 0 C-2.2037884 2.53435666 -3.66578661 3.53691481 -7 4 C-9.33300933 4.03888349 -11.66709801 4.0448635 -14 4 C-13.01 3.67 -12.02 3.34 -11 3 C-11 2.34 -11 1.68 -11 1 C-7.32589215 -0.17571451 -3.83070817 -0.07366746 0 0 Z " fill="#000" transform="translate(523,505)"/>
<path d="M0 0 C0.33 0 0.66 0 1 0 C0.54996653 5.62541841 -0.68441485 8.61487125 -4 13 C-5 10 -5 10 -4.00390625 7.51953125 C-3.52824219 6.62621094 -3.05257813 5.73289062 -2.5625 4.8125 C-2.08941406 3.91144531 -1.61632812 3.01039063 -1.12890625 2.08203125 C-0.75636719 1.39496094 -0.38382812 0.70789063 0 0 Z " fill="#000" transform="translate(495,474)"/>
<path d="M0 0 C-0.33 0.66 -0.66 1.32 -1 2 C-3.94140625 2.6328125 -3.94140625 2.6328125 -7.5625 3.125 C-8.76003906 3.29257812 -9.95757812 3.46015625 -11.19140625 3.6328125 C-12.11824219 3.75398437 -13.04507812 3.87515625 -14 4 C-14 3.34 -14 2.68 -14 2 C-12.42085985 1.46658816 -10.83645613 0.94874237 -9.25 0.4375 C-8.36828125 0.14746094 -7.4865625 -0.14257812 -6.578125 -0.44140625 C-3.92165684 -1.01697435 -2.52968894 -0.89248371 0 0 Z " fill="#000" transform="translate(393,564)"/>
<path d="M0 0 C0.66 0.33 1.32 0.66 2 1 C0.35 5.62 -1.3 10.24 -3 15 C-4.10709193 11.6787242 -3.8767476 10.30440012 -3.1875 6.9375 C-3.01605469 6.05964844 -2.84460938 5.18179687 -2.66796875 4.27734375 C-2 2 -2 2 0 0 Z " fill="#000" transform="translate(192,449)"/>
<path d="M0 0 C3.6575515 1.21918383 4.42328869 2.84071298 6.21484375 6.14453125 C7.217815 8.51473693 7.30800164 10.45898646 7 13 C4.64283596 10.84545751 3.21033856 8.80280126 1.8125 5.9375 C1.29623047 4.89916016 1.29623047 4.89916016 0.76953125 3.83984375 C0 2 0 2 0 0 Z " fill="#000" transform="translate(577,304)"/>
<path d="M0 0 C2.86453858 3.41016497 4.34703566 6.90694544 6 11 C4.1875 10.875 4.1875 10.875 2 10 C-1.146948 5.11680482 -1.146948 5.11680482 -0.6875 1.625 C-0.460625 1.08875 -0.23375 0.5525 0 0 Z " fill="#000" transform="translate(684,650)"/>
<path d="M0 0 C-1 2 -1 2 -3.43359375 2.88671875 C-4.42488281 3.15097656 -5.41617187 3.41523437 -6.4375 3.6875 C-7.92056641 4.09548828 -7.92056641 4.09548828 -9.43359375 4.51171875 C-12 5 -12 5 -14 4 C-12.68 3.67 -11.36 3.34 -10 3 C-10 2.34 -10 1.68 -10 1 C-6.61981469 -0.04005702 -3.5219721 -0.08004482 0 0 Z " fill="#000" transform="translate(416,594)"/>
<path d="M0 0 C0.33 0 0.66 0 1 0 C1.04241723 2.33294775 1.04092937 4.66702567 1 7 C0.67 7.33 0.34 7.66 0 8 C-1.52519276 7.91062197 -3.04681929 7.75462854 -4.5625 7.5625 C-5.80193359 7.40974609 -5.80193359 7.40974609 -7.06640625 7.25390625 C-7.70449219 7.17011719 -8.34257813 7.08632813 -9 7 C-8.67 6.01 -8.34 5.02 -8 4 C-5.36 4.66 -2.72 5.32 0 6 C0 4.02 0 2.04 0 0 Z " fill="#000" transform="translate(824,376)"/>
<path d="M0 0 C0 0.66 0 1.32 0 2 C-3.96 2.66 -7.92 3.32 -12 4 C-11.67 3.01 -11.34 2.02 -11 1 C-7.50970582 -0.47666292 -3.72563614 -0.07164685 0 0 Z " fill="#000" transform="translate(566,495)"/>
<path d="M0 0 C3.33333333 1.66666667 6.66666667 3.33333333 10 5 C10 5.66 10 6.32 10 7 C6.4257023 6.67506385 4.44287547 6.36129314 1.625 4.0625 C0 2 0 2 0 0 Z " fill="#000" transform="translate(446,547)"/>
<path d="M0 0 C3.26566506 4.89849759 3.09311493 8.31998909 3 14 C2.34 14 1.68 14 1 14 C0.04738513 9.23692563 -0.08333357 4.8333472 0 0 Z " fill="#000" transform="translate(200,530)"/>
<path d="M0 0 C0.6875 1.6875 0.6875 1.6875 1 4 C-0.3125 6.75 -0.3125 6.75 -2 9 C-2.66 9 -3.32 9 -4 9 C-4.33 9.66 -4.66 10.32 -5 11 C-4.46884894 6.48521602 -2.63379708 3.65333143 0 0 Z " fill="#000" transform="translate(525,409)"/>
<path d="M0 0 C-0.99 0.33 -1.98 0.66 -3 1 C-3 1.66 -3 2.32 -3 3 C-6.3 3.33 -9.6 3.66 -13 4 C-13 3.34 -13 2.68 -13 2 C-11.21089097 1.47044766 -9.41860852 0.9516063 -7.625 0.4375 C-6.62726563 0.14746094 -5.62953125 -0.14257812 -4.6015625 -0.44140625 C-2 -1 -2 -1 0 0 Z " fill="#000" transform="translate(371,623)"/>
<path d="M0 0 C2.33333823 2.12121657 3.9148886 4.01594365 5 7 C4.625 9.25 4.625 9.25 4 11 C0.85041169 7.57653445 0.43820891 4.55737263 0 0 Z " fill="#000" transform="translate(668,618)"/>
<path d="M0 0 C3 1 3 1 4.75 3.8125 C5.98589446 6.96403086 6.28222189 7.96929372 5 11 C4.54625 10.236875 4.0925 9.47375 3.625 8.6875 C2.46175508 6.76367186 1.2470585 4.87058776 0 3 C0 2.01 0 1.02 0 0 Z " fill="#000" transform="translate(704,543)"/>
<path d="M0 0 C-0.33 0.66 -0.66 1.32 -1 2 C-3.72265625 2.8515625 -3.72265625 2.8515625 -7.0625 3.625 C-8.16722656 3.88539063 -9.27195312 4.14578125 -10.41015625 4.4140625 C-11.26480469 4.60742188 -12.11945313 4.80078125 -13 5 C-12.67 4.34 -12.34 3.68 -12 3 C-11.01 3 -10.02 3 -9 3 C-9 2.34 -9 1.68 -9 1 C-5.8035914 -0.06546953 -3.34252724 -0.07427838 0 0 Z " fill="#000" transform="translate(432,527)"/>
<path d="M0 0 C0 0.66 0 1.32 0 2 C-6.4 5.07692308 -6.4 5.07692308 -9.4375 4.6875 C-9.953125 4.460625 -10.46875 4.23375 -11 4 C-7.2060585 0.99101192 -4.96966376 0 0 0 Z " fill="#000" transform="translate(707,459)"/>
<path d="M0 0 C0.66 0.99 1.32 1.98 2 3 C0.625 5.5 0.625 5.5 -1 8 C-1.66 8 -2.32 8 -3 8 C-3 8.66 -3 9.32 -3 10 C-3.66 10 -4.32 10 -5 10 C-4.38545304 6.00544473 -2.29353263 3.25533664 0 0 Z " fill="#000" transform="translate(163,688)"/>
<path d="M0 0 C0.33 0.66 0.66 1.32 1 2 C0.00390625 4.1640625 0.00390625 4.1640625 -1.4375 6.625 C-1.91058594 7.44226563 -2.38367188 8.25953125 -2.87109375 9.1015625 C-3.24363281 9.72804688 -3.61617188 10.35453125 -4 11 C-4.33 11 -4.66 11 -5 11 C-4.50769231 4.6 -4.50769231 4.6 -1.9375 1.5625 C-0.9784375 0.7890625 -0.9784375 0.7890625 0 0 Z " fill="#000" transform="translate(469,405)"/>
<path d="M0 0 C0.33 0 0.66 0 1 0 C0.67 2.97 0.34 5.94 0 9 C-0.99 9.33 -1.98 9.66 -3 10 C-2.25 2.25 -2.25 2.25 0 0 Z " fill="#000" transform="translate(345,580)"/>
<path d="M0 0 C-0.5625 1.9375 -0.5625 1.9375 -2 4 C-5.625 4.75 -5.625 4.75 -9 5 C-9 4.34 -9 3.68 -9 3 C-2.25 0 -2.25 0 0 0 Z " fill="#000" transform="translate(722,472)"/>
<path d="M0 0 C-1.45264038 0.8638129 -2.9123163 1.71580454 -4.375 2.5625 C-5.59316406 3.27599609 -5.59316406 3.27599609 -6.8359375 4.00390625 C-7.55007813 4.33261719 -8.26421875 4.66132813 -9 5 C-9.66 4.67 -10.32 4.34 -11 4 C-7.51147246 0.16261971 -5.09041622 -1.48780432 0 0 Z " fill="#000" transform="translate(774,432)"/>
<path d="M0 0 C0.66 0 1.32 0 2 0 C3.32 2.97 4.64 5.94 6 9 C4.68 8.67 3.36 8.34 2 8 C0.47835901 5.10888212 0 3.28176588 0 0 Z " fill="#000" transform="translate(689,663)"/>
<path d="M0 0 C0.66 0 1.32 0 2 0 C0.61198929 3.35435922 -0.88629 5.11290303 -4 7 C-4.99 7 -5.98 7 -7 7 C-7 6.34 -7 5.68 -7 5 C-5.03277992 3.61876037 -3.03131672 2.28511874 -1 1 C-0.67 0.67 -0.34 0.34 0 0 Z " fill="#000" transform="translate(203,654)"/>
<path d="M0 0 C0.33 0.99 0.66 1.98 1 3 C-1.25 5.0625 -1.25 5.0625 -4 7 C-5.32 6.67 -6.64 6.34 -8 6 C-5.36 4.02 -2.72 2.04 0 0 Z " fill="#000" transform="translate(214,646)"/>
<path d="M0 0 C-1.19899698 3.0831351 -2.47700477 6.06279492 -4 9 C-4.66 9 -5.32 9 -6 9 C-5.38983051 3.50847458 -5.38983051 3.50847458 -3.5625 1.125 C-2 0 -2 0 0 0 Z " fill="#000" transform="translate(446,505)"/>
<path d="M0 0 C0.33 0.99 0.66 1.98 1 3 C-1.33333333 7.66666667 -1.33333333 7.66666667 -4 9 C-3.38461538 3.46153846 -3.38461538 3.46153846 -1.4375 1.125 C-0.963125 0.75375 -0.48875 0.3825 0 0 Z " fill="#000" transform="translate(444,454)"/>
<path d="M0 0 C0 0.66 0 1.32 0 2 C-4.95 3.485 -4.95 3.485 -10 5 C-6.4262604 0.23501387 -5.78156084 0 0 0 Z " fill="#000" transform="translate(718,455)"/>
<path d="M0 0 C1.45922693 0.11409593 2.91740598 0.24165544 4.375 0.375 C5.59316406 0.47941406 5.59316406 0.47941406 6.8359375 0.5859375 C9 1 9 1 11 3 C9.741875 3.020625 8.48375 3.04125 7.1875 3.0625 C6.47980469 3.07410156 5.77210938 3.08570313 5.04296875 3.09765625 C3 3 3 3 0 2 C0 1.34 0 0.68 0 0 Z " fill="#000" transform="translate(637,608)"/>
<path d="M0 0 C-2.39763185 2.39763185 -3.33273498 2.34280586 -6.625 2.625 C-7.44226563 2.69976562 -8.25953125 2.77453125 -9.1015625 2.8515625 C-9.72804688 2.90054687 -10.35453125 2.94953125 -11 3 C-7.65817252 -1.0165182 -4.96805907 -0.24433077 0 0 Z " fill="#000" transform="translate(550,499)"/>
<path d="M0 0 C0.33 0 0.66 0 1 0 C0.25 6.75 0.25 6.75 -2 9 C-2.6875 6.75 -2.6875 6.75 -3 4 C-1.625 1.6875 -1.625 1.6875 0 0 Z " fill="#000" transform="translate(499,465)"/>
<path d="M0 0 C0.66 0 1.32 0 2 0 C3.42944945 2.35438733 4.08661261 3.48032433 3.625 6.25 C3.41875 6.8275 3.2125 7.405 3 8 C1.5 6.8125 1.5 6.8125 0 5 C-0.1875 2.3125 -0.1875 2.3125 0 0 Z " fill="#000" transform="translate(588,442)"/>
<path d="M0 0 C1.8125 0.0625 1.8125 0.0625 4 1 C5.75 4.5625 5.75 4.5625 7 8 C6.01 8 5.02 8 4 8 C3.34 6.02 2.68 4.04 2 2 C1.34 2 0.68 2 0 2 C0 1.34 0 0.68 0 0 Z " fill="#000" transform="translate(316,323)"/>
<path d="M0 0 C0 0.99 0 1.98 0 3 C-3.22791555 5.1519437 -4.28400809 5.20086443 -8 5 C-5.59563974 1.39345961 -4.05320393 1.14547068 0 0 Z " fill="#000" transform="translate(426,279)"/>
<path d="M0 0 C0.99 0 1.98 0 3 0 C6 5.75 6 5.75 6 8 C5.01 7.67 4.02 7.34 3 7 C1.3125 3.4375 1.3125 3.4375 0 0 Z " fill="#000" transform="translate(769,668)"/>
<path d="M0 0 C0.7425 0.0825 1.485 0.165 2.25 0.25 C2.25 0.91 2.25 1.57 2.25 2.25 C-0.72 2.91 -3.69 3.57 -6.75 4.25 C-3.42692308 0.31153846 -3.42692308 0.31153846 0 0 Z " fill="#000" transform="translate(398.75,535.75)"/>
<path d="M0 0 C1.6396875 0.0928125 1.6396875 0.0928125 3.3125 0.1875 C3.3125 0.8475 3.3125 1.5075 3.3125 2.1875 C0.0125 2.5175 -3.2875 2.8475 -6.6875 3.1875 C-3.6875 0.1875 -3.6875 0.1875 0 0 Z " fill="#000" transform="translate(532.6875,501.8125)"/>
<path d="M0 0 C2.31 0.66 4.62 1.32 7 2 C7.33 3.65 7.66 5.3 8 7 C6.66382648 6.02471263 5.3311249 5.04466681 4 4.0625 C3.2575 3.51722656 2.515 2.97195313 1.75 2.41015625 C1.1725 1.94480469 0.595 1.47945313 0 1 C0 0.67 0 0.34 0 0 Z " fill="#000" transform="translate(818,395)"/>
<path d="M0 0 C0 0.99 0 1.98 0 3 C-2.5 5.1875 -2.5 5.1875 -5 7 C-5.33 6.01 -5.66 5.02 -6 4 C-4.02 2.68 -2.04 1.36 0 0 Z " fill="#000" transform="translate(206,639)"/>
<path d="M0 0 C0.33 0 0.66 0 1 0 C0.6875 3.375 0.6875 3.375 0 7 C-0.99 7.66 -1.98 8.32 -3 9 C-2.5020163 5.26512223 -2.12508244 3.18762365 0 0 Z " fill="#000" transform="translate(529,399)"/>
<path d="M0 0 C1.98 0 3.96 0 6 0 C5.67 0.66 5.34 1.32 5 2 C4.34 2 3.68 2 3 2 C3 2.66 3 3.32 3 4 C1.35 4 -0.3 4 -2 4 C-1.34 2.68 -0.68 1.36 0 0 Z " fill="#000" transform="translate(478,262)"/>
<path d="M0 0 C0 0.66 0 1.32 0 2 C-2.97 2.66 -5.94 3.32 -9 4 C-6.25137935 -0.12293098 -4.89482776 0 0 0 Z " fill="#000" transform="translate(338,618)"/>
<path d="M0 0 C-3.00617269 3.00617269 -5.82381598 2.59585316 -10 3 C-7.29536552 -0.8183075 -4.37912428 -0.24787496 0 0 Z " fill="#000" transform="translate(460,585)"/>
<path d="M0 0 C2.64 0 5.28 0 8 0 C5.23776722 2.76223278 2.79293383 2.57856291 -1 3 C-0.67 2.01 -0.34 1.02 0 0 Z " fill="#000" transform="translate(568,493)"/>
<path d="M0 0 C2.72426311 2.35277269 3.8141763 4.62496331 5 8 C3.68 7.67 2.36 7.34 1 7 C0.67 4.69 0.34 2.38 0 0 Z " fill="#000" transform="translate(550,361)"/>
<path d="M0 0 C0 0.66 0 1.32 0 2 C-2 3.625 -2 3.625 -4 5 C-5.32 4.34 -6.64 3.68 -8 3 C-2.25 0 -2.25 0 0 0 Z " fill="#000" transform="translate(290,599)"/>
<path d="M0 0 C2.64 0 5.28 0 8 0 C8.33 0.99 8.66 1.98 9 3 C4.545 2.01 4.545 2.01 0 1 C0 0.67 0 0.34 0 0 Z " fill="#000" transform="translate(804,391)"/>
<path d="M0 0 C0.33 0 0.66 0 1 0 C0.67 2.31 0.34 4.62 0 7 C-0.99 7 -1.98 7 -3 7 C-3 6.01 -3 5.02 -3 4 C-2.34 4 -1.68 4 -1 4 C-0.67 2.68 -0.34 1.36 0 0 Z " fill="#000" transform="translate(547,360)"/>
<path d="M0 0 C2.91517292 1.07401108 4.77810176 1.77810176 7 4 C6.34 4 5.68 4 5 4 C4.67 4.66 4.34 5.32 4 6 C3.34 5.01 2.68 4.02 2 3 C1.01 2.34 0.02 1.68 -1 1 C-0.67 0.67 -0.34 0.34 0 0 Z " fill="#000" transform="translate(789,321)"/>
<path d="M0 0 C0.99 0 1.98 0 3 0 C5 3 5 3 4.625 5.1875 C4.41875 5.785625 4.2125 6.38375 4 7 C0 1.125 0 1.125 0 0 Z " fill="#000" transform="translate(370,289)"/>
<path d="M0 0 C4 1 4 1 4 1 Z " fill="#000" transform="translate(468,559)"/>
<path d="M0 0 C0 3 0 3 0 3 Z " fill="#000" transform="translate(545,248)"/>
<path d="M0 0 C3 1 3 1 3 1 Z " fill="#000" transform="translate(368,574)"/>
<path d="" fill="#000" transform="translate(0,0)"/>
<path d="M0 0 C2 1 2 1 2 1 Z " fill="#000" transform="translate(364,575)"/>
<path d="" fill="#000" transform="translate(0,0)"/>
<path d="M0 0 C2 1 2 1 2 1 Z " fill="#000" transform="translate(414,559)"/>
<path d="M0 0 C2 1 2 1 2 1 Z " fill="#000" transform="translate(475,558)"/>
<path d="M0 0 C2 1 2 1 2 1 Z " fill="#000" transform="translate(417,528)"/>
<path d="M0 0 C2 1 2 1 2 1 Z " fill="#000" transform="translate(485,496)"/>
<path d="M0 0 C2 1 2 1 2 1 Z " fill="#000" transform="translate(716,478)"/>
<path d="" fill="#000" transform="translate(0,0)"/>
<path d="" fill="#000" transform="translate(0,0)"/>
<path d="M0 0 C2 1 2 1 2 1 Z " fill="#000" transform="translate(548,366)"/>
<path d="" fill="#000" transform="translate(0,0)"/>
<path d="" fill="#000" transform="translate(0,0)"/>
<path d="" fill="#000" transform="translate(0,0)"/>
<path d="" fill="#000" transform="translate(0,0)"/>
<path d="" fill="#000" transform="translate(0,0)"/>
<path d="" fill="#000" transform="translate(0,0)"/>
<path d="" fill="#000" transform="translate(0,0)"/>
<path d="" fill="#000" transform="translate(0,0)"/>
<path d="" fill="#000" transform="translate(0,0)"/>
<path d="" fill="#000" transform="translate(0,0)"/>
<path d="" fill="#000" transform="translate(0,0)"/>
<path d="" fill="#000" transform="translate(0,0)"/>
<path d="" fill="#000" transform="translate(0,0)"/>
<path d="" fill="#000" transform="translate(0,0)"/>
<path d="" fill="#000" transform="translate(0,0)"/>
<path d="" fill="#000" transform="translate(0,0)"/>
<path d="" fill="#000" transform="translate(0,0)"/>
<path d="" fill="#000" transform="translate(0,0)"/>
<path d="" fill="#000" transform="translate(0,0)"/>
<path d="" fill="#000" transform="translate(0,0)"/>
<path d="" fill="#000" transform="translate(0,0)"/>
<path d="" fill="#000" transform="translate(0,0)"/>
<path d="" fill="#000" transform="translate(0,0)"/>
<path d="" fill="#000" transform="translate(0,0)"/>
<path d="" fill="#000" transform="translate(0,0)"/>
<path d="" fill="#000" transform="translate(0,0)"/>
<path d="" fill="#000" transform="translate(0,0)"/>
<path d="" fill="#000" transform="translate(0,0)"/>
<path d="" fill="#000" transform="translate(0,0)"/>
<path d="" fill="#000" transform="translate(0,0)"/>
<path d="" fill="#000" transform="translate(0,0)"/>
<path d="" fill="#000" transform="translate(0,0)"/>
<path d="" fill="#000" transform="translate(0,0)"/>
<path d="" fill="#000" transform="translate(0,0)"/>
<path d="" fill="#000" transform="translate(0,0)"/>
<path d="" fill="#000" transform="translate(0,0)"/>
<path d="" fill="#000" transform="translate(0,0)"/>
<path d="" fill="#000" transform="translate(0,0)"/>
<path d="" fill="#000" transform="translate(0,0)"/>
<path d="" fill="#000" transform="translate(0,0)"/>
<path d="" fill="#000" transform="translate(0,0)"/>
<path d="" fill="#000" transform="translate(0,0)"/>
<path d="" fill="#000" transform="translate(0,0)"/>
<path d="" fill="#000" transform="translate(0,0)"/>
<path d="" fill="#000" transform="translate(0,0)"/>
<path d="" fill="#000" transform="translate(0,0)"/>
<path d="" fill="#000" transform="translate(0,0)"/>
<path d="" fill="#000" transform="translate(0,0)"/>
<path d="" fill="#000" transform="translate(0,0)"/>
<path d="" fill="#000" transform="translate(0,0)"/>
<path d="" fill="#000" transform="translate(0,0)"/>
<path d="" fill="#000" transform="translate(0,0)"/>
<path d="" fill="#000" transform="translate(0,0)"/>
<path d="" fill="#000" transform="translate(0,0)"/>
<path d="" fill="#000" transform="translate(0,0)"/>
<path d="" fill="#000" transform="translate(0,0)"/>
<path d="" fill="#000" transform="translate(0,0)"/>
<path d="" fill="#000" transform="translate(0,0)"/>
<path d="" fill="#000" transform="translate(0,0)"/>
<path d="" fill="#000" transform="translate(0,0)"/>
<path d="" fill="#000" transform="translate(0,0)"/>
<path d="" fill="#000" transform="translate(0,0)"/>
<path d="" fill="#000" transform="translate(0,0)"/>
<path d="" fill="#000" transform="translate(0,0)"/>
<path d="" fill="#000" transform="translate(0,0)"/>
<path d="" fill="#000" transform="translate(0,0)"/>
<path d="" fill="#000" transform="translate(0,0)"/>
<path d="" fill="#000" transform="translate(0,0)"/>
<path d="" fill="#000" transform="translate(0,0)"/>
<path d="" fill="#000" transform="translate(0,0)"/>
<path d="" fill="#000" transform="translate(0,0)"/>
<path d="" fill="#000" transform="translate(0,0)"/>
<path d="" fill="#000" transform="translate(0,0)"/>
<path d="" fill="#000" transform="translate(0,0)"/>
<path d="" fill="#000" transform="translate(0,0)"/>
<path d="" fill="#000" transform="translate(0,0)"/>
<path d="" fill="#000" transform="translate(0,0)"/>
<path d="" fill="#000" transform="translate(0,0)"/>
<path d="" fill="#000" transform="translate(0,0)"/>
<path d="" fill="#000" transform="translate(0,0)"/>
<path d="" fill="#000" transform="translate(0,0)"/>
<path d="" fill="#000" transform="translate(0,0)"/>
<path d="" fill="#000" transform="translate(0,0)"/>
<path d="" fill="#000" transform="translate(0,0)"/>
<path d="" fill="#000" transform="translate(0,0)"/>
<path d="" fill="#000" transform="translate(0,0)"/>
<path d="" fill="#000" transform="translate(0,0)"/>
<path d="" fill="#000" transform="translate(0,0)"/>
<path d="" fill="#000" transform="translate(0,0)"/>
<path d="" fill="#000" transform="translate(0,0)"/>
<path d="" fill="#000" transform="translate(0,0)"/>
<path d="" fill="#000" transform="translate(0,0)"/>
<path d="" fill="#000" transform="translate(0,0)"/>
<path d="" fill="#000" transform="translate(0,0)"/>
<path d="" fill="#000" transform="translate(0,0)"/>
<path d="" fill="#000" transform="translate(0,0)"/>
<path d="" fill="#000" transform="translate(0,0)"/>
<path d="" fill="#000" transform="translate(0,0)"/>
<path d="" fill="#000" transform="translate(0,0)"/>
<path d="" fill="#000" transform="translate(0,0)"/>
<path d="" fill="#000" transform="translate(0,0)"/>
<path d="" fill="#000" transform="translate(0,0)"/>
<path d="" fill="#000" transform="translate(0,0)"/>
<path d="" fill="#000" transform="translate(0,0)"/>
<path d="" fill="#000" transform="translate(0,0)"/>
<path d="" fill="#000" transform="translate(0,0)"/>
<path d="" fill="#000" transform="translate(0,0)"/>
<path d="" fill="#000" transform="translate(0,0)"/>
<path d="" fill="#000" transform="translate(0,0)"/>
<path d="" fill="#000" transform="translate(0,0)"/>
<path d="" fill="#000" transform="translate(0,0)"/>
<path d="" fill="#000" transform="translate(0,0)"/>
<path d="" fill="#000" transform="translate(0,0)"/>
<path d="" fill="#000" transform="translate(0,0)"/>
<path d="" fill="#000" transform="translate(0,0)"/>
<path d="" fill="#000" transform="translate(0,0)"/>
<path d="" fill="#000" transform="translate(0,0)"/>
</svg>
